<?xml version="1.0" encoding="utf-8"?>
<!-- Generator: Adobe Illustrator 23.0.1, SVG Export Plug-In . SVG Version: 6.00 Build 0)  -->
<svg version="1.1" id="Layer_1" xmlns="http://www.w3.org/2000/svg" xmlns:xlink="http://www.w3.org/1999/xlink" x="0px" y="0px"
	 viewBox="0 0 595.3 841.9" style="enable-background:new 0 0 595.3 841.9;" xml:space="preserve">
<style type="text/css">
	.st0{fill:none;}
	.st1{enable-background:new    ;}
</style>
<rect x="13" y="396" class="st0" width="595.3" height="158"/>
<g class="st1">
	<path d="M56.6,420c0-0.2,0-0.4,0-0.5c0-3.6-1.2-6.9-3.5-9.9c-2.3-3-6.1-4.5-11.3-4.5c-5.2,0-9.3,2.3-12.2,6.9
		c-2.9,4.6-4.4,11.2-4.4,19.7c0,8.5,1.5,15.1,4.5,19.7c3,4.6,7.2,7,12.6,7c5.4,0,10.9-2.4,16.4-7.3c1.8,1.1,2.9,2.5,3.5,4.2
		c-2.5,2.6-5.7,4.7-9.4,6.3c-3.7,1.6-7.9,2.4-12.6,2.4c-4.7,0-8.8-1.5-12.3-4.6c-6.4-5.6-9.6-14.7-9.6-27.2
		c0-10.7,2.3-18.8,6.8-24.3c4.5-5.5,10.1-8.2,16.6-8.2c6.6,0,11.8,1.7,15.6,5.2c3.9,3.5,5.8,7.4,5.8,11.8c0,2.5-1.2,3.8-3.5,3.8
		C58.7,420.5,57.7,420.3,56.6,420z"/>
	<path d="M72.9,431.8c0-5.4,0.8-10.5,2.4-15.3c1.6-4.8,4-8.6,7.3-11.6c3.9-3.5,8.9-5.3,14.8-5.3s10.8,1.8,14.6,5.3
		c3.3,2.9,5.7,6.8,7.3,11.6c1.6,4.8,2.4,9.9,2.4,15.3c0,12.2-3.2,21.2-9.6,26.9c-3.8,3.5-8.7,5.3-14.6,5.3s-10.8-1.8-14.8-5.3
		C76.1,452.9,72.9,444,72.9,431.8z M80.5,422.5c-0.5,2.9-0.8,6-0.8,9.3s0.3,6.4,0.8,9.3c0.5,2.9,1.4,5.7,2.6,8.5
		c1.2,2.8,3.1,4.9,5.5,6.6c2.4,1.6,5.3,2.4,8.7,2.4c3.4,0,6.3-0.8,8.7-2.4c2.4-1.6,4.2-3.8,5.4-6.6c1.2-2.8,2.1-5.6,2.6-8.5
		c0.5-2.9,0.8-6,0.8-9.3s-0.3-6.4-0.8-9.2c-0.5-2.9-1.4-5.7-2.6-8.5c-1.2-2.8-3-4.9-5.4-6.6c-2.4-1.6-5.3-2.4-8.7-2.4
		c-3.4,0-6.3,0.8-8.7,2.4c-2.4,1.6-4.2,3.8-5.5,6.5C81.9,416.7,81,419.6,80.5,422.5z"/>
	<path d="M134.8,462.8l4.8-62.1c1-0.2,2.4-0.3,4.2-0.3c1.8,0,3.2,0.1,4.2,0.3l10.8,32.7c2,5.9,3.2,10.2,3.7,13h0.5
		c0.5-2.8,1.7-7.1,3.7-13l10.8-32.7c1.2-0.2,2.5-0.3,4.2-0.3c1.6,0,3.1,0.1,4.3,0.3l4.8,62.1c-1,0.3-2.1,0.5-3.1,0.5
		c-1.1,0-2.1-0.1-3.1-0.3l-2.6-38.6c-0.2-2.5-0.4-8.2-0.7-16.9h-0.5l-14.8,45.7c-1,0.2-2,0.3-3.2,0.3s-2.2-0.1-3.1-0.3l-14.8-45.7
		h-0.5c-0.1,1.5-0.2,4.4-0.3,8.5c-0.2,4.2-0.3,7-0.4,8.4L141,463c-1,0.2-2.1,0.3-3.3,0.3C136.6,463.2,135.6,463.1,134.8,462.8z"/>
	<path d="M208.3,462.9v-62.2c0.8-0.2,1.8-0.3,3.1-0.3c1.3,0,2.4,0.1,3.3,0.3v62.2c-0.9,0.2-2,0.3-3.3,0.3S209.1,463.1,208.3,462.9z"
		/>
	<path d="M275.4,400.5l0.5,0.5v62c-1.1,0.2-2.4,0.3-4,0.3c-1.6,0-2.9-0.1-3.9-0.3l-22.8-42c-1.8-3.3-3.9-7.5-6.3-12.5h-0.3
		c0.4,10.9,0.5,17.3,0.5,19.1v35.3c-1.2,0.2-2.2,0.3-3.1,0.3c-0.9,0-1.8-0.1-2.9-0.3v-62.2c1.1-0.2,2.4-0.3,4-0.3s2.9,0.1,4,0.3
		l22.7,42c0.3,0.5,2.4,4.8,6.4,12.6v0.1h0.3c-0.3-7.3-0.5-14-0.5-20.3v-30.5c0-1.5,0.2-2.6,0.6-3.2c0.4-0.6,1.3-1,2.6-1H275.4z"/>
	<path d="M317.6,431.9h13.8c1.9,0,3.2,0.3,4,1c0.8,0.7,1.1,1.8,1.1,3.5V460c-6.5,2.7-13.6,4-21.4,4c-4.6,0-8.5-0.9-11.8-2.7
		c-3.3-1.8-5.9-4.3-7.7-7.5c-3.5-6-5.2-13.2-5.2-21.6c0-5.7,0.7-10.7,2.2-15.1c1.5-4.3,3.5-7.7,6-10.1c4.9-4.9,10.8-7.4,17.6-7.4
		c3.7,0,7.4,0.6,11.1,1.8c3.7,1.2,6.7,2.9,9.1,5c-0.5,2.1-1.6,3.8-3.5,5c-5-4-10.8-6-17.3-6c-5.3,0-9.7,2.1-13.2,6.4
		c-3.5,4.2-5.2,11.1-5.2,20.5c0,17.3,6.3,25.9,19,25.9c5.3,0,9.9-0.7,13.9-2.2v-12.8c0-2.7,0-4.5,0.1-5.5H320c-2,0-3-1-3-3.1
		C317,433.9,317.2,433,317.6,431.9z"/>
	<path d="M366.7,457.2c0.2-2.1,1.2-3.8,3.1-5.2c6,4.2,12.1,6.3,18.2,6.3c4.4,0,7.9-0.9,10.5-2.8c2.6-1.9,3.9-4.4,3.9-7.6
		c0-4.9-3.3-8.8-10-11.7l-10.6-4.6c-8.1-3.5-12.1-8.6-12.1-15.1c0-4.7,1.8-8.6,5.3-11.9c3.5-3.2,8.2-4.9,14.1-4.9
		c5.9,0,11.8,1.5,17.9,4.4c0.1,2.1-0.7,3.9-2.5,5.4c-5.5-2.8-10.3-4.2-14.5-4.2c-4.2,0-7.6,1-10.1,3c-2.5,2-3.7,4.5-3.7,7.7
		c0,4,3,7.3,9.1,9.9l10.3,4.5c9,3.9,13.6,9.3,13.6,16.3c0,5.3-1.8,9.5-5.4,12.7s-9.1,4.8-16.5,4.8S373,461.7,366.7,457.2z"/>
	<path d="M418.9,431.8c0-5.4,0.8-10.5,2.4-15.3c1.6-4.8,4-8.6,7.3-11.6c3.9-3.5,8.9-5.3,14.8-5.3s10.8,1.8,14.6,5.3
		c3.3,2.9,5.7,6.8,7.3,11.6c1.6,4.8,2.4,9.9,2.4,15.3c0,12.2-3.2,21.2-9.6,26.9c-3.8,3.5-8.7,5.3-14.6,5.3s-10.8-1.8-14.8-5.3
		C422.1,452.9,418.9,444,418.9,431.8z M426.5,422.5c-0.5,2.9-0.8,6-0.8,9.3s0.3,6.4,0.8,9.3c0.5,2.9,1.4,5.7,2.6,8.5
		c1.2,2.8,3.1,4.9,5.5,6.6c2.4,1.6,5.3,2.4,8.7,2.4c3.4,0,6.3-0.8,8.7-2.4c2.4-1.6,4.2-3.8,5.4-6.6c1.2-2.8,2.1-5.6,2.6-8.5
		c0.5-2.9,0.8-6,0.8-9.3s-0.3-6.4-0.8-9.2c-0.5-2.9-1.4-5.7-2.6-8.5c-1.2-2.8-3-4.9-5.4-6.6c-2.4-1.6-5.3-2.4-8.7-2.4
		c-3.4,0-6.3,0.8-8.7,2.4c-2.4,1.6-4.2,3.8-5.5,6.5C427.8,416.7,427,419.6,426.5,422.5z"/>
	<path d="M478.2,431.8c0-5.4,0.8-10.5,2.4-15.3c1.6-4.8,4-8.6,7.3-11.6c3.9-3.5,8.9-5.3,14.8-5.3s10.8,1.8,14.6,5.3
		c3.3,2.9,5.7,6.8,7.3,11.6c1.6,4.8,2.4,9.9,2.4,15.3c0,12.2-3.2,21.2-9.6,26.9c-3.8,3.5-8.7,5.3-14.6,5.3s-10.8-1.8-14.8-5.3
		C481.4,452.9,478.2,444,478.2,431.8z M485.8,422.5c-0.5,2.9-0.8,6-0.8,9.3s0.3,6.4,0.8,9.3c0.5,2.9,1.4,5.7,2.6,8.5
		c1.2,2.8,3.1,4.9,5.5,6.6c2.4,1.6,5.3,2.4,8.7,2.4c3.4,0,6.3-0.8,8.7-2.4c2.4-1.6,4.2-3.8,5.4-6.6c1.2-2.8,2.1-5.6,2.6-8.5
		c0.5-2.9,0.8-6,0.8-9.3s-0.3-6.4-0.8-9.2c-0.5-2.9-1.4-5.7-2.6-8.5c-1.2-2.8-3-4.9-5.4-6.6c-2.4-1.6-5.3-2.4-8.7-2.4
		c-3.4,0-6.3,0.8-8.7,2.4c-2.4,1.6-4.2,3.8-5.5,6.5C487.2,416.7,486.3,419.6,485.8,422.5z"/>
	<path d="M583.5,400.5l0.5,0.5v62c-1.1,0.2-2.4,0.3-4,0.3c-1.6,0-2.9-0.1-3.9-0.3l-22.8-42c-1.8-3.3-3.9-7.5-6.3-12.5h-0.3
		c0.4,10.9,0.5,17.3,0.5,19.1v35.3c-1.2,0.2-2.2,0.3-3.1,0.3s-1.8-0.1-2.9-0.3v-62.2c1.1-0.2,2.4-0.3,4-0.3s2.9,0.1,4,0.3l22.7,42
		c0.3,0.5,2.4,4.8,6.4,12.6v0.1h0.3c-0.3-7.3-0.5-14-0.5-20.3v-30.5c0-1.5,0.2-2.6,0.6-3.2c0.4-0.6,1.3-1,2.6-1H583.5z"/>
</g>
</svg>
